<svg width="130" height="130" viewBox="0 0 130 130" fill="none" xmlns="http://www.w3.org/2000/svg">
<path d="M86.7673 22.0714C98.0721 27.9251 106.588 38.0298 110.443 50.1626C114.297 62.2955 113.174 75.4626 107.321 86.7673C101.467 98.0721 91.3621 106.588 79.2293 110.443C67.0964 114.297 53.9293 113.174 42.6246 107.321L64.6959 64.6959L86.7673 22.0714Z" fill="#EEF4FF"/>
<path d="M43.3885 107.391C32.0694 101.565 23.5282 91.4817 19.6438 79.3584C15.7595 67.2351 16.8502 54.0652 22.6761 42.7461C28.5019 31.427 38.5856 22.8858 50.7089 19.0014C62.8322 15.1171 76.0021 16.2078 87.3212 22.0337L65.3549 64.7125L43.3885 107.391Z" fill="#1339FF"/>
<path d="M49.3586 110.275L92.9308 25.8751L98.0118 29.9744L56.8613 112.27L49.3586 110.275Z" fill="#1339FF"/>
<path d="M62.0304 112.641L102.08 34.5394L104.011 36.9184L65.6787 112.81L62.0304 112.641Z" fill="#1339FF"/>
</svg>
